<?xml version="1.0" encoding="iso-8859-1"?>
<!-- Uploaded to: SVG Repo, www.svgrepo.com, Generator: SVG Repo Mixer Tools -->
<svg height="800px" width="800px" version="1.1" id="Layer_1" xmlns="http://www.w3.org/2000/svg" xmlns:xlink="http://www.w3.org/1999/xlink" 
	 viewBox="0 0 308.22 308.22" xml:space="preserve">
<g>
	<path style="fill:#FFE49C;" d="M223.22,85.002H85c-6.987,0-12.651-5.664-12.651-12.651l0,0C72.349,65.364,78.013,59.7,85,59.7
		h138.22c6.987,0,12.651,5.664,12.651,12.651l0,0C235.871,79.338,230.207,85.002,223.22,85.002z"/>
	<polygon style="fill:#FFE49C;" points="101.07,169.342 67.31,248.521 30.06,248.521 63.82,169.342 	"/>
	<polygon style="fill:#FFE49C;" points="137.02,85.002 111.85,144.042 74.6,144.042 99.77,85.002 	"/>
	<polygon style="fill:#FFE49C;" points="233.62,144.042 196.37,144.042 171.2,85.002 208.45,85.002 	"/>
	<polygon style="fill:#FFE49C;" points="278.16,248.521 240.91,248.521 207.15,169.342 244.4,169.342 	"/>
	<g>
		<path style="fill:#FFE49C;" d="M300.72,156.691c0,7.006-5.681,12.65-12.65,12.65H20.15c-6.99,0-12.65-5.67-12.65-12.65
			c0-7.001,5.65-12.65,12.65-12.65h267.92C295.06,144.042,300.72,149.702,300.72,156.691z"/>
		<path style="fill:#414042;" d="M288.07,136.542h-49.494l-18.775-44.04h3.419c11.111,0,20.151-9.039,20.151-20.151
			c0-11.111-9.039-20.151-20.151-20.151H85c-11.111,0-20.151,9.04-20.151,20.151c0,11.111,9.039,20.151,20.151,20.151h3.419
			l-18.775,44.04H20.15c-11.111,0-20.15,9.04-20.15,20.15c0,11.111,9.039,20.15,20.15,20.15h32.319l-29.308,68.738
			c-2.109,4.945,1.529,10.441,6.899,10.441h37.25c3.005,0,5.72-1.794,6.899-4.559l31.816-74.621h96.17l31.816,74.621
			c1.179,2.765,3.894,4.559,6.899,4.559h37.25c5.376,0,9.005-5.502,6.899-10.441l-29.308-68.738h32.319
			c11.111,0,20.15-9.039,20.15-20.15C308.22,145.581,299.181,136.542,288.07,136.542z M222.269,136.542h-20.944l-18.775-44.04
			h20.944L222.269,136.542z M166.244,92.502l18.775,44.04h-61.818l18.775-44.04H166.244z M79.849,72.351
			c0-2.84,2.311-5.151,5.151-5.151h138.22c2.84,0,5.151,2.31,5.151,5.151c0,2.84-2.311,5.151-5.151,5.151
			c-55.386,0-72.344,0-138.22,0C82.16,77.502,79.849,75.191,79.849,72.351z M104.726,92.502h20.944l-18.775,44.04H85.951
			L104.726,92.502z M62.354,241.021H41.411l27.364-64.18h20.943L62.354,241.021z M266.809,241.021h-20.943l-27.364-64.18h20.943
			L266.809,241.021z M288.07,161.842c-95.485,0,4.161,0-267.92,0c-2.84,0-5.15-2.31-5.15-5.15s2.31-5.15,5.15-5.15
			c10.185,0,257.75,0,267.92,0c2.84,0,5.15,2.311,5.15,5.15C293.22,159.532,290.91,161.842,288.07,161.842z"/>
	</g>
</g>
</svg>